<svg width="18" height="21" viewBox="0 0 18 21" fill="none" xmlns="http://www.w3.org/2000/svg">
<path d="M15 11.4597L18 14.5847V18.7514C18 19.3039 17.7893 19.8338 17.4142 20.2245C17.0391 20.6152 16.5304 20.8347 16 20.8347H2C1.46957 20.8347 0.960859 20.6152 0.585786 20.2245C0.210714 19.8338 0 19.3039 0 18.7514V14.5847L3 11.4597H3.83L5.83 13.5431H3.78L2 15.6264H16L14.23 13.5431H12.32L14.32 11.4597H15ZM16 18.7514V17.7097H2V18.7514H16ZM8.34 13.5431L3.39 8.40765C3.2973 8.31128 3.22375 8.19681 3.17357 8.0708C3.12339 7.94478 3.09756 7.8097 3.09756 7.67327C3.09756 7.53685 3.12339 7.40176 3.17357 7.27575C3.22375 7.14973 3.2973 7.03527 3.39 6.9389L9.76 0.303481C9.85156 0.206502 9.96089 0.12967 10.0815 0.077542C10.2021 0.0254145 10.3315 -0.000945636 10.4621 2.59101e-05C10.5927 0.000997456 10.7218 0.0292808 10.8416 0.0831977C10.9615 0.137115 11.0698 0.215566 11.16 0.313898L16.11 5.47015C16.5 5.8764 16.5 6.53265 16.11 6.9389L9.75 13.5431C9.66012 13.6444 9.55108 13.7252 9.42975 13.7805C9.30843 13.8358 9.17743 13.8643 9.045 13.8643C8.91257 13.8643 8.78157 13.8358 8.66025 13.7805C8.53892 13.7252 8.42988 13.6444 8.34 13.5431ZM10.46 2.51181L5.5 7.66806L9.05 11.3556L14 6.19931L10.46 2.51181Z" fill="#404040"/>
</svg>
