<svg width="23" height="23" viewBox="0 0 23 23" fill="none" xmlns="http://www.w3.org/2000/svg">
<path d="M0 11.0562C0.00163078 9.53167 0.564684 8.0701 1.56564 6.99211C2.5666 5.91411 3.92371 5.30773 5.33928 5.30597H9.41355C9.76677 5.28275 14.8144 4.86365 19.6259 0.517817C19.9253 0.247189 20.29 0.0741582 20.6775 0.0190448C21.0649 -0.0360685 21.4589 0.0290243 21.8132 0.206679C22.1675 0.384333 22.4673 0.667172 22.6776 1.02198C22.8878 1.37678 22.9996 1.78882 23 2.2097V19.9027C23.0024 20.324 22.8919 20.7372 22.6818 21.0926C22.4716 21.4481 22.1706 21.7306 21.8151 21.9064C21.461 22.0864 21.0663 22.1528 20.6781 22.0977C20.2899 22.0426 19.9246 21.8683 19.6259 21.5956C17.1632 19.3659 14.2332 17.8158 11.0893 17.0795V19.9767C11.0893 20.3408 11.0059 20.6992 10.8465 21.0201C10.6871 21.3411 10.4566 21.6148 10.1754 21.8168C10.1299 21.85 10.0822 21.8796 10.0327 21.9053L8.55003 22.686C8.27598 22.8627 7.96744 22.9681 7.64893 22.9938C7.33042 23.0195 7.01073 22.9649 6.71527 22.8343C6.4198 22.7036 6.1567 22.5005 5.94689 22.2412C5.73708 21.9818 5.58634 21.6733 5.50664 21.3402L4.36794 16.7157C3.14099 16.4697 2.03261 15.7692 1.23485 14.7356C0.437101 13.7019 0.000249863 12.4003 0 11.0562ZM21 19.7412L21 2.5C17.2861 5.60401 13.1254 6.91743 11.0893 7.3111L11.0893 15C13.1254 15.3892 17.2861 16.6361 21 19.7412ZM7.5 20.5L9 19.5V16.8064L6.5 16.8064L7.5 20.5ZM5.5 15L9 15L9 7.55029L5.3255 7.55029C4.563 7.55029 3.5 8 3 8.5C2.22046 9.27954 2 10.1788 2 11C2 11.8212 2.46083 12.9193 3 13.5C3.53917 14.0807 4.7375 15 5.5 15Z" fill="#404040"/>
</svg>
